# xmcd
#
# Track frame offsets: 
#        150
#        12868
#        25722
#        40970
#        58903
#        73473
#        92320
#        108157
#        119613
#        136519
#        151065
#        168449
#        182136
#        203756
#        222649
#        239973
#        255053
#        275979
#        287233
#        305156
#
# Disc length: 4219 seconds
#
# Revision: 0
# Processed by: cddbd v1.5.2PL0 Copyright (c) Steve Scherf et al.
# Submitted via: ExactAudioCopy v0.99pb5
#
DISCID=2b107914
DTITLE=Сборник - Золотой генофонд Украины CD3
DYEAR=2007
DGENRE=Pop-Folk
TTITLE0=Оленi - Тiк (за участi Ляпис Трубецкой)
TTITLE1=Кольорова - Скрябiн
TTITLE2=Звёзды - М. Фокина&Д. Климашенко
TTITLE3=Наваждение - К. Плай
TTITLE4=Весь мир - М. Мигаль
TTITLE5=Не отпускай - Crystal
TTITLE6=Тело - SMS
TTITLE7=Шабелина - От Vinta
TTITLE8=Постой, Мущина! - С. Лобода
TTITLE9=Missing you - Д. Климашенко
TTITLE10=Вiдправила message - Н. Могилевская
TTITLE11=Герои - Артика
TTITLE12=Тумба-буги - А. Винницкая&Ж. Делиев
TTITLE13=Чорноморець - Тартак
TTITLE14=Hotel - ТМНК представляе Metamorefozzey
TTITLE15=Мiлiцiя! - Борщ
TTITLE16=Сердце - Нумер 482
TTITLE17=Кинь тачку - White
TTITLE18=Рядом - Ж. Фокин
TTITLE19=Бобiк - А. Мухарський та група Koni-Aйленd
EXTD=
EXTT0=
EXTT1=
EXTT2=
EXTT3=
EXTT4=
EXTT5=
EXTT6=
EXTT7=
EXTT8=
EXTT9=
EXTT10=
EXTT11=
EXTT12=
EXTT13=
EXTT14=
EXTT15=
EXTT16=
EXTT17=
EXTT18=
EXTT19=
PLAYORDER=
